<?xml version="1.0" encoding="UTF-8" standalone="no"?>
<svg
   xmlns:dc="http://purl.org/dc/elements/1.1/"
   xmlns:cc="http://creativecommons.org/ns#"
   xmlns:rdf="http://www.w3.org/1999/02/22-rdf-syntax-ns#"
   xmlns:svg="http://www.w3.org/2000/svg"
   xmlns="http://www.w3.org/2000/svg"
   viewBox="0 0 845.05334 118.81333"
   height="118.81333"
   width="845.05334"
   xml:space="preserve"
   id="svg2"
   version="1.1"><metadata
     id="metadata8"><rdf:RDF><cc:Work
         rdf:about=""><dc:format>image/svg+xml</dc:format><dc:type
           rdf:resource="http://purl.org/dc/dcmitype/StillImage" /></cc:Work></rdf:RDF></metadata><defs
     id="defs6" /><g
     transform="matrix(1.3333333,0,0,-1.3333333,0,118.81333)"
     id="g10"><g
       transform="scale(0.1)"
       id="g12"><path
         id="path14"
         style="fill:#4f4c4c;fill-opacity:1;fill-rule:nonzero;stroke:none"
         d="m 2619.94,574.895 h 97.79 V 553.93 h -74.69 v -35.856 h 66.29 v -21.015 h -66.29 v -53.477 h -23.1 v 131.313" /><path
         id="path16"
         style="fill:#4f4c4c;fill-opacity:1;fill-rule:nonzero;stroke:none"
         d="m 2747.8,574.895 h 97.32 v -20.606 h -74.2 v -34.168 h 65.76 v -20.629 h -65.76 v -35.281 h 75.19 v -20.629 h -98.31 v 131.313" /><path
         id="path18"
         style="fill:#4f4c4c;fill-opacity:1;fill-rule:nonzero;stroke:none"
         d="m 2901.3,553.93 v -89.305 h 25.89 c 27.57,0 45.61,18.531 45.61,44.262 v 0.363 c 0,25.68 -18.04,44.68 -45.61,44.68 z m -23.04,20.965 h 48.93 c 41.26,0 69.77,-28.293 69.77,-65.231 v -0.414 c 0,-36.961 -28.51,-65.668 -69.77,-65.668 h -48.93 v 131.313" /><path
         id="path20"
         style="fill:#4f4c4c;fill-opacity:1;fill-rule:nonzero;stroke:none"
         d="m 3029.7,574.895 h 97.33 v -20.606 h -74.24 v -34.168 h 65.83 v -20.629 h -65.83 v -35.281 h 75.25 v -20.629 h -98.34 v 131.313" /><path
         id="path22"
         style="fill:#4f4c4c;fill-opacity:1;fill-rule:nonzero;stroke:none"
         d="m 3216.95,509.82 c 16.47,0 27.05,8.621 27.05,21.899 v 0.465 c 0,14.054 -10.14,21.746 -27.25,21.746 h -33.6 v -44.11 z m -56.89,65.075 h 58.6 c 16.54,0 29.46,-4.868 37.85,-13.102 6.99,-7.113 10.9,-16.875 10.9,-28.34 v -0.336 c 0,-21.59 -12.97,-34.531 -31.12,-39.785 l 35.46,-49.75 h -27.41 l -32.23,45.789 h -28.96 v -45.789 h -23.09 v 131.313" /><path
         id="path24"
         style="fill:#4f4c4c;fill-opacity:1;fill-rule:nonzero;stroke:none"
         d="m 3380.08,495.789 -22.78,52.496 -22.44,-52.496 z m -33.08,80.09 h 21.4 l 57.8,-132.297 h -24.43 l -13.33,31.707 h -62.1 l -13.43,-31.707 h -23.74 L 3347,575.879" /><path
         id="path26"
         style="fill:#4f4c4c;fill-opacity:1;fill-rule:nonzero;stroke:none"
         d="m 3468.84,553.539 h -41.7 v 21.356 h 106.59 v -21.356 h -41.65 V 443.582 h -23.24 v 109.957" /><path
         id="path28"
         style="fill:#4f4c4c;fill-opacity:1;fill-rule:nonzero;stroke:none"
         d="m 3564.14,574.895 h 23.09 V 443.582 h -23.09 v 131.313" /><path
         id="path30"
         style="fill:#4f4c4c;fill-opacity:1;fill-rule:nonzero;stroke:none"
         d="m 3734.43,508.887 v 0.363 c 0,25.523 -18.58,46.695 -44.67,46.695 -26.15,0 -44.27,-20.808 -44.27,-46.281 v -0.414 c 0,-25.523 18.54,-46.488 44.58,-46.488 26.14,0 44.36,20.629 44.36,46.125 z m -113.21,0 v 0.363 c 0,36.988 28.52,67.922 68.85,67.922 40.32,0 68.54,-30.57 68.54,-67.508 v -0.414 c 0,-36.961 -28.66,-67.867 -68.85,-67.867 -40.41,0 -68.54,30.543 -68.54,67.504" /><path
         id="path32"
         style="fill:#4f4c4c;fill-opacity:1;fill-rule:nonzero;stroke:none"
         d="m 3791.2,574.895 h 21.45 l 70.38,-90.805 v 90.805 h 22.68 V 443.582 h -19.36 L 3813.9,537 v -93.418 h -22.7 v 131.313" /><path
         id="path34"
         style="fill:#4f4c4c;fill-opacity:1;fill-rule:nonzero;stroke:none"
         d="m 2727.02,296.609 v 0.364 c 0,25.496 -18.59,46.722 -44.65,46.722 -26.04,0 -44.25,-20.863 -44.25,-46.332 v -0.39 c 0,-25.547 18.61,-46.512 44.64,-46.512 26.14,0 44.26,20.652 44.26,46.148 z m -113.13,0 v 0.364 c 0,36.988 28.58,67.922 68.87,67.922 40.32,0 68.49,-30.571 68.49,-67.532 v -0.39 c 0,-36.961 -28.58,-67.895 -68.88,-67.895 -40.28,0 -68.48,30.57 -68.48,67.531" /><path
         id="path36"
         style="fill:#4f4c4c;fill-opacity:1;fill-rule:nonzero;stroke:none"
         d="m 2783.92,362.645 h 97.77 v -21.02 h -74.65 v -35.824 h 66.25 v -21.02 h -66.25 v -53.476 h -23.12 v 131.34" /><path
         id="path38"
         style="fill:#4f4c4c;fill-opacity:1;fill-rule:nonzero;stroke:none"
         d="m 2949.45,294.41 v 0.336 c 0,37.352 27.95,67.922 67.7,67.922 24.22,0 38.87,-8.41 51.41,-20.422 l -14.76,-17.058 c -10.51,9.734 -21.83,16.304 -36.81,16.304 -24.92,0 -43.31,-20.629 -43.31,-46.355 v -0.391 c 0,-25.703 18.22,-46.562 43.31,-46.562 16.14,0 26.52,6.468 37.71,16.925 l 14.82,-14.961 c -13.72,-14.285 -28.68,-23.296 -53.31,-23.296 -38.22,0 -66.76,29.82 -66.76,67.558" /><path
         id="path40"
         style="fill:#4f4c4c;fill-opacity:1;fill-rule:nonzero;stroke:none"
         d="m 3177.97,281.285 -22.67,52.469 -22.52,-52.469 z m -32.95,80.063 h 21.31 l 57.82,-132.27 h -24.33 l -13.36,31.785 h -62.14 l -13.51,-31.785 h -23.64 l 57.85,132.27" /><path
         id="path42"
         style="fill:#4f4c4c;fill-opacity:1;fill-rule:nonzero;stroke:none"
         d="m 3251.43,360.441 h 21.33 l 70.41,-90.828 v 90.828 h 22.67 V 229.078 h -19.31 l -72.42,93.492 v -93.492 h -22.68 v 131.363" /><path
         id="path44"
         style="fill:#4f4c4c;fill-opacity:1;fill-rule:nonzero;stroke:none"
         d="m 3483.93,281.285 -22.73,52.469 -22.5,-52.469 z m -33.08,80.063 h 21.38 l 57.82,-132.27 h -24.38 l -13.31,31.785 h -62.12 l -13.51,-31.785 h -23.55 l 57.67,132.27" /><path
         id="path46"
         style="fill:#4f4c4c;fill-opacity:1;fill-rule:nonzero;stroke:none"
         d="m 3580.42,339.449 v -89.301 h 25.91 c 27.57,0 45.48,18.532 45.48,44.262 v 0.336 c 0,25.758 -17.91,44.703 -45.48,44.703 z m -23.03,20.992 h 48.94 c 41.23,0 69.76,-28.343 69.76,-65.304 v -0.391 c 0,-36.933 -28.53,-65.668 -69.76,-65.668 h -48.94 v 131.363" /><path
         id="path48"
         style="fill:#4f4c4c;fill-opacity:1;fill-rule:nonzero;stroke:none"
         d="m 3710.05,360.441 h 23.06 V 229.078 h -23.06 v 131.363" /><path
         id="path50"
         style="fill:#4f4c4c;fill-opacity:1;fill-rule:nonzero;stroke:none"
         d="m 3852.47,281.285 -22.68,52.469 -22.47,-52.469 z m -32.98,80.063 h 21.38 l 57.82,-132.27 h -24.41 l -13.33,31.785 h -62.12 l -13.46,-31.785 h -23.71 l 57.83,132.27" /><path
         id="path52"
         style="fill:#4f4c4c;fill-opacity:1;fill-rule:nonzero;stroke:none"
         d="m 3925.85,360.441 h 21.45 l 70.43,-90.828 v 90.828 h 22.6 V 229.078 h -19.28 l -72.48,93.492 v -93.492 h -22.72 v 131.363" /><path
         id="path54"
         style="fill:#4f4c4c;fill-opacity:1;fill-rule:nonzero;stroke:none"
         d="m 2619.94,145.941 h 24.62 l 39.97,-62.1246 39.95,62.1246 h 24.57 V 14.6016 h -23.04 V 108.82 l -41.48,-61.9645 h -0.75 L 2642.7,108.434 V 14.6016 h -22.76 V 145.941" /><path
         id="path56"
         style="fill:#4f4c4c;fill-opacity:1;fill-rule:nonzero;stroke:none"
         d="m 2785.48,70.3086 v 75.6324 h 23.07 V 71.2891 c 0,-24.4336 12.58,-37.3516 33.29,-37.3516 20.38,0 32.99,12.1953 32.99,36.3711 v 75.6324 h 23.06 V 71.4961 c 0,-39.2422 -22.17,-58.9883 -56.48,-58.9883 -34.12,0 -55.93,19.7461 -55.93,57.8008" /><path
         id="path58"
         style="fill:#4f4c4c;fill-opacity:1;fill-rule:nonzero;stroke:none"
         d="m 2934.31,145.941 h 21.42 l 70.38,-90.8043 v 90.8043 h 22.64 V 14.6016 h -19.3 L 2957.09,108.07 V 14.6016 h -22.78 V 145.941" /><path
         id="path60"
         style="fill:#4f4c4c;fill-opacity:1;fill-rule:nonzero;stroke:none"
         d="m 3088.6,145.941 h 23.01 V 14.6016 H 3088.6 V 145.941" /><path
         id="path62"
         style="fill:#4f4c4c;fill-opacity:1;fill-rule:nonzero;stroke:none"
         d="m 3145.67,79.9102 v 0.3593 c 0,37.3515 27.9,67.9495 67.71,67.9495 24.15,0 38.86,-8.465 51.36,-20.449 l -14.76,-17.059 c -10.51,9.707 -21.82,16.332 -36.78,16.332 -24.95,0 -43.41,-20.652 -43.41,-46.3828 v -0.3907 c 0,-25.7304 18.28,-46.4882 43.41,-46.4882 16.08,0 26.43,6.3437 37.72,16.8789 l 14.83,-15.0664 C 3252.03,21.332 3237.04,12.375 3212.48,12.375 c -38.28,0 -66.81,29.8477 -66.81,67.5352" /><path
         id="path64"
         style="fill:#4f4c4c;fill-opacity:1;fill-rule:nonzero;stroke:none"
         d="m 3295.95,145.941 h 23.09 V 14.6016 h -23.09 V 145.941" /><path
         id="path66"
         style="fill:#4f4c4c;fill-opacity:1;fill-rule:nonzero;stroke:none"
         d="m 3408.76,77.7109 c 17.44,0 28.37,9.7071 28.37,23.3441 v 0.441 c 0,15.402 -11.13,23.399 -28.37,23.399 h -26.82 V 77.7109 Z m -49.96,68.2301 h 51.82 c 30.78,0 49.91,-17.449 49.91,-43.847 v -0.414 c 0,-29.4612 -23.66,-44.8323 -52.5,-44.8323 h -26.09 V 14.6016 H 3358.8 V 145.941" /><path
         id="path68"
         style="fill:#4f4c4c;fill-opacity:1;fill-rule:nonzero;stroke:none"
         d="m 3555.34,66.7852 -22.75,52.5698 -22.47,-52.5698 z m -33.03,80.1368 h 21.41 l 57.77,-132.3204 h -24.38 l -13.41,31.7382 h -62.07 l -13.48,-31.7382 h -23.69 l 57.85,132.3204" /><path
         id="path70"
         style="fill:#4f4c4c;fill-opacity:1;fill-rule:nonzero;stroke:none"
         d="m 3628.67,145.941 h 23.11 V 35.5938 h 69.14 V 14.6016 h -92.25 V 145.941" /><path
         id="path72"
         style="fill:#4f4c4c;fill-opacity:1;fill-rule:nonzero;stroke:none"
         d="m 3750.9,145.941 h 22.98 V 14.6016 H 3750.9 V 145.941" /><path
         id="path74"
         style="fill:#4f4c4c;fill-opacity:1;fill-rule:nonzero;stroke:none"
         d="m 3849.8,124.559 h -41.7 v 21.382 h 106.62 v -21.382 h -41.65 V 14.6016 H 3849.8 V 124.559" /><path
         id="path76"
         style="fill:#4f4c4c;fill-opacity:1;fill-rule:nonzero;stroke:none"
         d="m 3945.08,145.941 h 23.09 V 14.6016 h -23.09 V 145.941" /><path
         id="path78"
         style="fill:#4f4c4c;fill-opacity:1;fill-rule:nonzero;stroke:none"
         d="m 4008,145.941 h 97.35 v -20.605 h -74.23 V 91.1445 h 65.8 V 70.5117 h -65.8 V 35.2031 h 75.24 V 14.6016 H 4008 V 145.941" /><path
         id="path80"
         style="fill:#4f4c4c;fill-opacity:1;fill-rule:nonzero;stroke:none"
         d="m 4129.63,33.7813 13.88,16.4882 c 12.52,-10.8711 25.26,-17.082 41.41,-17.082 14.39,0 23.3,6.7305 23.3,16.5117 v 0.3633 c 0,9.3984 -5.18,14.4727 -29.61,20.1133 -28.04,6.7031 -43.77,14.9883 -43.77,39.1642 v 0.414 c 0,22.519 18.84,38.051 44.96,38.051 19,0 34.29,-5.746 47.52,-16.438 l -12.37,-17.472 c -11.78,8.828 -23.61,13.511 -35.59,13.511 -13.54,0 -21.38,-6.988 -21.38,-15.582 v -0.363 c 0,-10.117 5.92,-14.6758 31.29,-20.6563 27.75,-6.7813 42.01,-16.7227 42.01,-38.4375 v -0.4375 c 0,-24.5664 -19.33,-39.1914 -46.85,-39.1914 -20.11,0 -39.06,6.9375 -54.8,21.043" /><path
         id="path82"
         style="fill:#4f4c4c;fill-opacity:1;fill-rule:nonzero;stroke:none"
         d="m 4517.74,574.895 h 97.77 V 553.93 h -74.73 v -35.856 h 66.31 v -21.015 h -66.31 v -53.477 h -23.04 v 131.313" /><path
         id="path84"
         style="fill:#4f4c4c;fill-opacity:1;fill-rule:nonzero;stroke:none"
         d="m 4706.31,612.996 20.71,-9.012 -24.08,-18.168 h -17.57 z m -60.75,-38.101 h 97.4 v -20.606 h -74.26 v -34.168 h 65.85 v -20.629 h -65.85 v -35.281 h 75.22 v -20.629 h -98.36 v 131.313" /><path
         id="path86"
         style="fill:#4f4c4c;fill-opacity:1;fill-rule:nonzero;stroke:none"
         d="m 4799.1,553.93 v -89.305 h 25.89 c 27.62,0 45.58,18.531 45.58,44.262 v 0.363 c 0,25.68 -17.96,44.68 -45.58,44.68 z m -23.03,20.965 h 48.92 c 41.31,0 69.81,-28.293 69.81,-65.231 v -0.414 c 0,-36.961 -28.5,-65.668 -69.81,-65.668 h -48.92 v 131.313" /><path
         id="path88"
         style="fill:#4f4c4c;fill-opacity:1;fill-rule:nonzero;stroke:none"
         d="m 4988.24,612.996 20.73,-9.012 -24.15,-18.168 h -17.55 z m -60.72,-38.101 h 97.29 v -20.606 h -74.16 v -34.168 h 65.75 v -20.629 h -65.75 v -35.281 h 75.2 v -20.629 h -98.33 v 131.313" /><path
         id="path90"
         style="fill:#4f4c4c;fill-opacity:1;fill-rule:nonzero;stroke:none"
         d="m 5114.81,509.82 c 16.44,0 27.05,8.621 27.05,21.899 v 0.465 c 0,14.054 -10.17,21.746 -27.31,21.746 h -33.59 v -44.11 z m -56.89,65.075 h 58.6 c 16.41,0 29.38,-4.868 37.82,-13.102 6.99,-7.113 10.97,-16.875 10.97,-28.34 v -0.336 c 0,-21.59 -13.04,-34.531 -31.26,-39.785 l 35.51,-49.75 h -27.41 l -32.31,45.789 h -28.88 v -45.789 h -23.04 v 131.313" /><path
         id="path92"
         style="fill:#4f4c4c;fill-opacity:1;fill-rule:nonzero;stroke:none"
         d="m 5277.83,495.789 -22.65,52.496 -22.59,-52.496 z m -33,80.09 h 21.38 l 57.77,-132.297 h -24.43 l -13.23,31.707 h -62.12 l -13.51,-31.707 h -23.74 l 57.88,132.297" /><path
         id="path94"
         style="fill:#4f4c4c;fill-opacity:1;fill-rule:nonzero;stroke:none"
         d="m 5366.74,553.539 h -41.7 v 21.356 h 106.47 v -21.356 h -41.6 V 443.582 h -23.17 v 109.957" /><path
         id="path96"
         style="fill:#4f4c4c;fill-opacity:1;fill-rule:nonzero;stroke:none"
         d="m 5462.02,574.895 h 22.96 V 443.582 h -22.96 v 131.313" /><path
         id="path98"
         style="fill:#4f4c4c;fill-opacity:1;fill-rule:nonzero;stroke:none"
         d="m 5632.16,508.887 v 0.363 c 0,25.523 -18.64,46.695 -44.7,46.695 -26.12,0 -44.19,-20.808 -44.19,-46.281 v -0.414 c 0,-25.523 18.51,-46.488 44.6,-46.488 26.17,0 44.29,20.629 44.29,46.125 z m -113.11,0 v 0.363 c 0,36.988 28.52,67.922 68.82,67.922 40.33,0 68.47,-30.57 68.47,-67.508 v -0.414 c 0,-36.961 -28.45,-67.867 -68.88,-67.867 -40.28,0 -68.41,30.543 -68.41,67.504" /><path
         id="path100"
         style="fill:#4f4c4c;fill-opacity:1;fill-rule:nonzero;stroke:none"
         d="m 5689.08,574.895 h 21.46 l 70.22,-90.805 v 90.805 h 22.76 V 443.582 h -19.37 L 5711.83,537 v -93.418 h -22.75 v 131.313" /><path
         id="path102"
         style="fill:#4f4c4c;fill-opacity:1;fill-rule:nonzero;stroke:none"
         d="m 4512.02,294.41 v 0.336 c 0,37.352 27.9,67.922 67.66,67.922 24.1,0 38.78,-8.41 51.36,-20.422 l -14.73,-17.058 c -10.54,9.734 -21.75,16.304 -36.81,16.304 -24.9,0 -43.38,-20.629 -43.38,-46.355 v -0.391 c 0,-25.703 18.22,-46.562 43.38,-46.562 16.18,0 26.48,6.468 37.69,16.925 l 14.93,-14.961 c -13.87,-14.285 -28.73,-23.296 -53.32,-23.296 -38.36,0 -66.78,29.82 -66.78,67.558" /><path
         id="path104"
         style="fill:#4f4c4c;fill-opacity:1;fill-rule:nonzero;stroke:none"
         d="m 4740.5,281.285 -22.65,52.469 -22.54,-52.469 z m -33,80.063 h 21.41 l 57.82,-132.27 h -24.49 l -13.25,31.785 h -62.12 l -13.54,-31.785 h -23.6 l 57.77,132.27" /><path
         id="path106"
         style="fill:#4f4c4c;fill-opacity:1;fill-rule:nonzero;stroke:none"
         d="m 4813.91,360.441 h 21.48 l 70.3,-90.828 v 90.828 h 22.76 V 229.078 h -19.44 l -72.37,93.492 v -93.492 h -22.73 v 131.363" /><path
         id="path108"
         style="fill:#4f4c4c;fill-opacity:1;fill-rule:nonzero;stroke:none"
         d="m 5046.43,281.285 -22.7,52.469 -22.55,-52.469 z m -33.03,80.063 h 21.43 l 57.75,-132.27 h -24.44 l -13.33,31.785 h -61.99 l -13.51,-31.785 h -23.61 l 57.7,132.27" /><path
         id="path110"
         style="fill:#4f4c4c;fill-opacity:1;fill-rule:nonzero;stroke:none"
         d="m 5142.87,339.449 v -89.301 h 25.91 c 27.57,0 45.61,18.532 45.61,44.262 v 0.336 c 0,25.758 -18.04,44.703 -45.61,44.703 z m -23.04,20.992 h 48.95 c 41.37,0 69.79,-28.343 69.79,-65.304 v -0.391 c 0,-36.933 -28.42,-65.668 -69.79,-65.668 h -48.95 v 131.363" /><path
         id="path112"
         style="fill:#4f4c4c;fill-opacity:1;fill-rule:nonzero;stroke:none"
         d="m 5272.63,360.441 h 23.09 V 229.078 h -23.09 v 131.363" /><path
         id="path114"
         style="fill:#4f4c4c;fill-opacity:1;fill-rule:nonzero;stroke:none"
         d="m 5335.48,360.441 h 97.35 V 339.84 h -74.29 v -34.195 h 65.82 v -20.629 h -65.82 v -35.231 h 75.27 v -20.707 h -98.33 v 131.363" /><path
         id="path116"
         style="fill:#4f4c4c;fill-opacity:1;fill-rule:nonzero;stroke:none"
         d="m 5465.96,360.441 h 21.4 l 70.25,-90.828 v 90.828 h 22.84 V 229.078 h -19.39 l -72.43,93.492 v -93.492 h -22.67 v 131.363" /><path
         id="path118"
         style="fill:#4f4c4c;fill-opacity:1;fill-rule:nonzero;stroke:none"
         d="m 5618.83,360.441 h 21.41 l 70.3,-90.828 v 90.828 h 22.85 V 229.078 h -19.51 l -72.32,93.492 v -93.492 h -22.73 v 131.363" /><path
         id="path120"
         style="fill:#4f4c4c;fill-opacity:1;fill-rule:nonzero;stroke:none"
         d="m 5771.88,360.441 h 97.38 V 339.84 h -74.44 v -34.195 h 65.93 v -20.629 h -65.93 v -35.231 h 75.24 v -20.707 h -98.18 v 131.363" /><path
         id="path122"
         style="fill:#4f4c4c;fill-opacity:1;fill-rule:nonzero;stroke:none"
         d="m 5986.31,339.449 v -89.301 h 25.99 c 27.48,0 45.5,18.532 45.5,44.262 v 0.336 c 0,25.758 -18.02,44.703 -45.5,44.703 z m -23.09,20.992 h 49.08 c 41.26,0 69.7,-28.343 69.7,-65.304 v -0.391 c 0,-36.933 -28.44,-65.668 -69.7,-65.668 h -49.08 v 131.363" /><path
         id="path124"
         style="fill:#4f4c4c;fill-opacity:1;fill-rule:nonzero;stroke:none"
         d="m 6114.69,360.441 h 97.38 V 339.84 h -74.29 v -34.195 h 65.83 v -20.629 h -65.83 v -35.231 h 75.25 v -20.707 h -98.34 v 131.363" /><path
         id="path126"
         style="fill:#4f4c4c;fill-opacity:1;fill-rule:nonzero;stroke:none"
         d="m 6236.33,248.184 13.92,16.562 c 12.48,-10.871 25.29,-17.031 41.44,-17.031 14.29,0 23.3,6.758 23.3,16.465 v 0.414 c 0,9.371 -5.28,14.39 -29.72,20.058 -27.95,6.731 -43.77,14.989 -43.77,39.215 v 0.363 c 0,22.52 18.84,38.051 44.81,38.051 19.23,0 34.42,-5.824 47.67,-16.492 l -12.26,-17.445 c -11.81,8.801 -23.61,13.515 -35.72,13.515 -13.44,0 -21.33,-6.937 -21.33,-15.558 v -0.414 c 0,-10.094 5.92,-14.598 31.37,-20.606 27.72,-6.781 41.91,-16.668 41.91,-38.492 v -0.332 c 0,-24.641 -19.26,-39.242 -46.91,-39.242 -19.98,0 -38.98,6.965 -54.71,20.969" /><path
         id="path128"
         style="fill:#4f4c4c;fill-opacity:1;fill-rule:nonzero;stroke:none"
         d="m 4517.74,145.941 h 24.62 l 39.99,-62.1246 39.94,62.1246 h 24.59 V 14.6016 h -23.14 V 108.82 l -41.39,-61.9645 h -0.83 l -41.08,61.5785 V 14.6016 h -22.7 V 145.941" /><path
         id="path130"
         style="fill:#4f4c4c;fill-opacity:1;fill-rule:nonzero;stroke:none"
         d="m 4683.32,70.3086 v 75.6324 h 22.99 V 71.2891 c 0,-24.4336 12.63,-37.3516 33.34,-37.3516 20.39,0 32.92,12.1953 32.92,36.3711 v 75.6324 h 23.09 V 71.4961 c 0,-39.2422 -22.13,-58.9883 -56.4,-58.9883 -34.27,0 -55.94,19.7461 -55.94,57.8008" /><path
         id="path132"
         style="fill:#4f4c4c;fill-opacity:1;fill-rule:nonzero;stroke:none"
         d="m 4832.08,145.941 h 21.59 l 70.22,-90.8043 v 90.8043 h 22.65 V 14.6016 h -19.26 l -72.4,93.4684 V 14.6016 h -22.8 V 145.941" /><path
         id="path134"
         style="fill:#4f4c4c;fill-opacity:1;fill-rule:nonzero;stroke:none"
         d="m 4986.4,145.941 h 23.09 V 14.6016 H 4986.4 V 145.941" /><path
         id="path136"
         style="fill:#4f4c4c;fill-opacity:1;fill-rule:nonzero;stroke:none"
         d="m 5043.4,79.9102 v 0.3593 c 0,37.3515 27.95,67.9495 67.79,67.9495 24.23,0 38.83,-8.465 51.46,-20.449 l -14.83,-17.059 c -10.51,9.707 -21.83,16.332 -36.81,16.332 -24.95,0 -43.36,-20.652 -43.36,-46.3828 v -0.3907 c 0,-25.7304 18.2,-46.4882 43.36,-46.4882 16.12,0 26.37,6.3437 37.74,16.8789 l 14.8,-15.0664 C 5149.78,21.332 5134.77,12.375 5110.26,12.375 c -38.26,0 -66.86,29.8477 -66.86,67.5352" /><path
         id="path138"
         style="fill:#4f4c4c;fill-opacity:1;fill-rule:nonzero;stroke:none"
         d="m 5193.68,145.941 h 23.2 V 14.6016 h -23.2 V 145.941" /><path
         id="path140"
         style="fill:#4f4c4c;fill-opacity:1;fill-rule:nonzero;stroke:none"
         d="m 5306.69,77.7109 c 17.29,0 28.24,9.7071 28.24,23.3441 v 0.441 c 0,15.402 -11.05,23.399 -28.24,23.399 h -27.05 V 77.7109 Z m -50.08,68.2301 h 51.84 c 30.8,0 49.86,-17.449 49.86,-43.847 v -0.414 c 0,-29.4612 -23.66,-44.8323 -52.55,-44.8323 h -26.12 V 14.6016 h -23.03 V 145.941" /><path
         id="path142"
         style="fill:#4f4c4c;fill-opacity:1;fill-rule:nonzero;stroke:none"
         d="m 5453.15,66.7852 -22.73,52.5698 -22.52,-52.5698 z m -33.03,80.1368 h 21.43 l 57.72,-132.3204 h -24.41 l -13.38,31.7382 h -62.1 l -13.41,-31.7382 h -23.73 l 57.88,132.3204" /><path
         id="path144"
         style="fill:#4f4c4c;fill-opacity:1;fill-rule:nonzero;stroke:none"
         d="m 5526.5,145.941 h 23.09 V 35.5938 h 68.98 V 14.6016 H 5526.5 V 145.941" /><path
         id="path146"
         style="fill:#4f4c4c;fill-opacity:1;fill-rule:nonzero;stroke:none"
         d="m 5648.7,145.941 h 23.12 V 14.6016 H 5648.7 V 145.941" /><path
         id="path148"
         style="fill:#4f4c4c;fill-opacity:1;fill-rule:nonzero;stroke:none"
         d="m 5743.8,124.559 h -41.7 v 21.382 h 106.72 v -21.382 h -41.73 V 14.6016 H 5743.8 V 124.559" /><path
         id="path150"
         style="fill:#4f4c4c;fill-opacity:1;fill-rule:nonzero;stroke:none"
         d="m 5898.61,184.039 20.71,-9.008 -24.1,-18.195 h -17.52 z m -60.7,-38.098 h 97.33 v -20.605 h -74.29 V 91.1445 h 65.85 V 70.5117 h -65.85 V 35.2031 h 75.25 V 14.6016 h -98.29 V 145.941" /><path
         id="path152"
         style="fill:#4f4c4c;fill-opacity:1;fill-rule:nonzero;stroke:none"
         d="m 5959.6,33.7813 13.79,16.4882 c 12.58,-10.8711 25.34,-17.082 41.5,-17.082 14.23,0 23.24,6.7305 23.24,16.5117 v 0.3633 c 0,9.3984 -5.28,14.4727 -29.72,20.1133 -27.93,6.7031 -43.66,14.9883 -43.66,39.1642 v 0.414 c 0,22.519 18.76,38.051 44.83,38.051 19.13,0 34.37,-5.746 47.6,-16.438 l -12.32,-17.472 c -11.81,8.828 -23.61,13.511 -35.59,13.511 -13.57,0 -21.43,-6.988 -21.43,-15.582 v -0.363 c 0,-10.117 6,-14.6758 31.34,-20.6563 27.7,-6.7813 42.04,-16.7227 42.04,-38.4375 v -0.4375 c 0,-24.5664 -19.39,-39.1914 -46.98,-39.1914 -20.01,0 -39.06,6.9375 -54.64,21.043" /><path
         id="path154"
         style="fill:#820431;fill-opacity:1;fill-rule:nonzero;stroke:none"
         d="M 652.281,699.297 V 880.926 H 0 V 10.1328 H 181.527 V 334.672 H 548.563 V 516.25 H 181.527 v 183.047 h 470.754" /><path
         id="path156"
         style="fill:#820431;fill-opacity:1;fill-rule:nonzero;stroke:none"
         d="M 1112.95,0 C 867.215,0 667.309,199.879 667.309,445.566 c 0,245.633 199.906,445.567 445.641,445.567 103.33,0 204.08,-36.231 283.66,-101.953 L 1280.87,649.133 c -46.99,38.926 -106.75,60.371 -167.92,60.371 -145.579,0 -263.985,-118.399 -263.985,-263.938 0,-145.617 118.406,-263.988 263.985,-263.988 61.17,0 120.93,21.418 168,60.27 L 1396.52,101.871 C 1316.96,36.1406 1216.21,0 1112.95,0" /><path
         id="path158"
         style="fill:#820431;fill-opacity:1;fill-rule:nonzero;stroke:none"
         d="M 2180.51,880.926 1930.54,566.93 1680.6,880.926 H 1495.61 V 10.1328 h 241.15 c 1.34,1.4258 2.69,2.836 4.03,4.2617 4.81,5.1407 4.9,10.2539 0.49,14.3164 -1.71,1.5704 -3.64,2.9258 -5.57,4.211 -46.74,30.9804 -93.5,61.9258 -140.24,92.9021 -6.73,4.461 -13.39,9.031 -20.72,13.977 15.53,10.054 30.31,19.64 45.11,29.207 14.19,9.176 17.65,17.191 14.5,33.906 -14.39,76.316 -28.78,152.633 -43.23,228.938 -1.14,6.007 -2.77,11.921 -4.17,17.878 0.25,0.297 0.5,0.594 0.75,0.891 12.09,-3.398 24.18,-6.805 36.27,-10.199 1.68,-0.469 3.39,-0.848 5.07,-1.32 16.07,-4.547 20.04,-2.922 27.26,12.511 17.4,37.246 34.6,74.59 51.89,111.887 0.8,1.711 1.68,3.375 2.91,5.836 8.11,-10.375 15.83,-20.246 23.53,-30.125 15.87,-20.336 31.69,-40.719 47.62,-61.008 7.24,-9.215 16.85,-10.594 26.64,-4.023 13.99,9.386 27.94,18.824 42.73,28.781 0.33,-11.5 0.66,-22.102 0.94,-32.707 0.95,-34.949 1.8,-69.902 2.92,-104.848 0.13,-4.168 1.03,-8.574 2.69,-12.383 4.98,-11.472 16.69,-13.843 24.68,-4.246 7,8.414 12.7,18.039 18.14,27.606 31.56,55.469 62.88,111.078 94.3,166.633 0.36,0.636 0.95,1.152 1.94,2.328 5.61,-13.535 11.01,-26.551 16.41,-39.563 2.6,-6.269 5.02,-12.625 7.86,-18.785 7.63,-16.547 17.55,-20.484 34.29,-13.82 43.63,17.371 87.25,34.758 130.87,52.133 1.95,0.777 3.94,1.488 6.58,2.484 -0.58,-2.98 -0.97,-5.25 -1.45,-7.5 -9.68,-45.551 -19.38,-91.098 -29.07,-136.648 -3.9,-18.332 2.07,-28.036 20.44,-32.407 18.12,-4.304 36.33,-8.222 54.5,-12.32 1.83,-0.41 3.64,-0.902 6.46,-1.605 -11.53,-9.438 -22.28,-18.262 -33.06,-27.059 -44.48,-36.313 -89.04,-72.535 -133.35,-109.047 -4.36,-3.598 -8.07,-8.535 -10.69,-13.57 -4.04,-7.766 -0.96,-15.676 7.33,-18.391 5.32,-1.738 11.51,-2.328 17.05,-1.57 43.3,5.902 86.54,12.258 129.8,18.512 1.5,0.218 2.94,0.882 5.76,1.757 -7.59,-16.949 -14.31,-31.972 -21.04,-46.996 -5.51,-12.281 -2.84,-20.851 8.9,-27.187 32.26,-17.4143 64.59,-34.6956 96.88,-52.0393 1.15,-0.6172 2.22,-1.3555 3.92,-2.3985 -16.59,-11.4219 -32.69,-22.4531 -48.73,-33.5703 -7.48,-5.1836 -14.91,-10.4414 -22.39,-15.6211 h 121.06 V 880.926 h -185.06" /></g></g></svg>