<svg xmlns="http://www.w3.org/2000/svg" viewBox="0 0 215.251 215.249"><g style="isolation:isolate"><g id="Layer_1" data-name="Layer 1"><path d="M107.658,215.391A107.625,107.625,0,1,1,215.284,107.766,107.748,107.748,0,0,1,107.658,215.391Z" transform="translate(-0.033 -0.141)" fill="#fff"/><path d="M108,8.549a99.217,99.217,0,1,0,99.219,99.217A99.33,99.33,0,0,0,108,8.549Z" transform="translate(-0.033 -0.141)" fill="#fff"/><path d="M107.658,215.391A107.625,107.625,0,1,1,215.284,107.766,107.748,107.748,0,0,1,107.658,215.391Zm0-206.842a99.217,99.217,0,1,0,99.218,99.217A99.329,99.329,0,0,0,107.658,8.549Z" transform="translate(-0.033 -0.141)" fill="#afe028"/><path d="M132.82,56.418l.009,0c-.068-.035-.141-.061-.21-.094-.153-.074-.306-.145-.463-.208-.105-.042-.212-.08-.319-.117-.155-.054-.311-.1-.47-.147-.108-.03-.216-.059-.325-.084-.175-.04-.353-.071-.532-.1-.1-.015-.192-.034-.289-.045a7.613,7.613,0,0,0-.831-.051H54.311a7.6,7.6,0,0,0-.831.051c-.1.011-.192.03-.289.045-.179.027-.357.058-.532.1-.11.025-.217.054-.325.084q-.239.066-.47.147c-.107.037-.214.075-.319.117-.157.063-.311.135-.463.208-.069.033-.143.059-.21.094l.008,0A7.544,7.544,0,0,0,46.8,63.1V165.389a7.549,7.549,0,0,0,7.523,7.526h75.048a7.551,7.551,0,0,0,7.526-7.526V63.1A7.543,7.543,0,0,0,132.82,56.418Zm-55.7,102.725a2.034,2.034,0,0,1-2.026,2.026H67a2.033,2.033,0,0,1-2.024-2.026v-8.1A2.033,2.033,0,0,1,67,149.019H75.1a2.034,2.034,0,0,1,2.026,2.026Zm0-20.327a2.034,2.034,0,0,1-2.026,2.026H67a2.033,2.033,0,0,1-2.024-2.026v-8.1A2.028,2.028,0,0,1,67,128.7H75.1a2.029,2.029,0,0,1,2.026,2.021Zm0-20.327a2.034,2.034,0,0,1-2.026,2.026H67a2.033,2.033,0,0,1-2.024-2.026v-8.1A2.028,2.028,0,0,1,67,108.37H75.1a2.029,2.029,0,0,1,2.026,2.021Zm20.8,40.654a2.032,2.032,0,0,1-2.026,2.026H87.8a2.032,2.032,0,0,1-2.024-2.026v-8.1a2.032,2.032,0,0,1,2.024-2.026h8.1a2.032,2.032,0,0,1,2.026,2.026Zm0-20.327a2.032,2.032,0,0,1-2.026,2.026H87.8a2.032,2.032,0,0,1-2.024-2.026v-8.1A2.028,2.028,0,0,1,87.8,128.7h8.1a2.027,2.027,0,0,1,2.026,2.021Zm0-20.327a2.032,2.032,0,0,1-2.026,2.026H87.8a2.033,2.033,0,0,1-2.024-2.026v-8.1A2.028,2.028,0,0,1,87.8,108.37h8.1a2.027,2.027,0,0,1,2.026,2.021Zm20.8,39.342a3.346,3.346,0,0,1-3.336,3.338h-5.471a3.346,3.346,0,0,1-3.338-3.338v-25.8a3.345,3.345,0,0,1,3.338-3.333h5.471a3.345,3.345,0,0,1,3.336,3.333Zm0-39.342a2.032,2.032,0,0,1-2.023,2.026h-8.1a2.033,2.033,0,0,1-2.026-2.026v-8.1a2.028,2.028,0,0,1,2.026-2.021h8.1a2.027,2.027,0,0,1,2.023,2.021Zm3.7-42.47a4.362,4.362,0,0,1,4.348,4.35V90.756a4.359,4.359,0,0,1-4.348,4.346H61.277a4.359,4.359,0,0,1-4.348-4.346V80.369a4.362,4.362,0,0,1,4.348-4.35Z" transform="translate(-0.033 -0.141)" fill="#afe028"/><circle cx="134.006" cy="70.8" r="31.4" fill="#fff"/><path d="M134.039,106.343a35.4,35.4,0,1,1,35.4-35.4A35.44,35.44,0,0,1,134.039,106.343Zm0-62.8a27.4,27.4,0,1,0,27.4,27.4A27.432,27.432,0,0,0,134.039,43.541Z" transform="translate(-0.033 -0.141)" fill="#008942" style="mix-blend-mode:multiply"/><polygon points="172.79 98.27 169.961 101.099 159.032 90.17 153.376 95.827 164.305 106.756 161.476 109.585 184.646 132.755 195.96 121.44 172.79 98.27" fill="#008942" style="mix-blend-mode:multiply"/><path d="M136.854,87.317v4.752h-4.992V87.221a24.114,24.114,0,0,1-11.329-4.56l3.744-5.473a19.038,19.038,0,0,0,7.825,3.889V73.444c-6.913-1.872-10.321-4.561-10.321-10.226,0-5.328,4.032-8.832,10.081-9.456V50.978h4.992v2.88a20.137,20.137,0,0,1,8.929,3.553l-3.216,5.616a19.826,19.826,0,0,0-5.953-2.832v7.248c7.3,1.969,10.417,4.992,10.417,10.369C147.031,83.14,142.951,86.645,136.854,87.317ZM132.1,59.762c-2.305.336-3.312,1.489-3.312,3.025,0,1.488.671,2.5,3.312,3.456ZM136.614,74.6v6.721c2.257-.336,3.408-1.392,3.408-3.12C140.022,76.564,139.207,75.556,136.614,74.6Z" transform="translate(-0.033 -0.141)" fill="#008942"/></g></g></svg>